<mxfile host="app.diagrams.net" modified="2024-01-13T17:26:47.449Z" agent="Mozilla/5.0 (Macintosh; Intel Mac OS X 10_15_7) AppleWebKit/537.36 (KHTML, like Gecko) Chrome/120.0.0.0 Safari/537.36" version="22.1.18" etag="eFap4Z_Ear29EE2f92Cu" type="github">
  <diagram name="Page-1" id="IiCv1StpUXjD_4k9d-kt">
    <mxGraphModel>
      <root>
        <mxCell id="0" />
        <mxCell id="1" parent="0" />
      </root>
    </mxGraphModel>
  </diagram>
</mxfile>
